<svg width="1080" height="175" viewBox="0 0 1080 175" fill="none" xmlns="http://www.w3.org/2000/svg">
<line x1="712" y1="63.5" x2="960" y2="63.5" stroke="#0000DB" stroke-width="3"/>
<line x1="958.5" y1="62" x2="958.5" y2="47" stroke="#0000DB" stroke-width="3"/>
<line x1="713.5" y1="47" x2="713.5" y2="62" stroke="#0000DB" stroke-width="3"/>
<line x1="755.5" y1="162" x2="755.5" y2="62" stroke="#0000DB" stroke-width="3"/>
<line x1="757" y1="160.5" x2="791" y2="160.5" stroke="#0000DB" stroke-width="3"/>
<path d="M812.578 167.109C811.807 167.557 811.01 167.891 810.188 168.109C809.375 168.339 808.542 168.453 807.688 168.453C804.979 168.453 802.859 167.641 801.328 166.016C799.807 164.391 799.047 162.141 799.047 159.266C799.047 156.391 799.807 154.141 801.328 152.516C802.859 150.891 804.979 150.078 807.688 150.078C808.531 150.078 809.354 150.188 810.156 150.406C810.958 150.625 811.766 150.964 812.578 151.422V154.438C811.818 153.76 811.052 153.271 810.281 152.969C809.521 152.667 808.656 152.516 807.688 152.516C805.885 152.516 804.5 153.099 803.531 154.266C802.562 155.432 802.078 157.099 802.078 159.266C802.078 161.422 802.562 163.089 803.531 164.266C804.51 165.432 805.896 166.016 807.688 166.016C808.688 166.016 809.583 165.865 810.375 165.562C811.167 165.25 811.901 164.771 812.578 164.125V167.109ZM831.703 157.156V168H828.812V157.156C828.812 155.583 828.536 154.427 827.984 153.688C827.432 152.948 826.568 152.578 825.391 152.578C824.047 152.578 823.01 153.057 822.281 154.016C821.562 154.964 821.203 156.328 821.203 158.109V168H818.328V143.688H821.203V153.125C821.714 152.125 822.406 151.37 823.281 150.859C824.156 150.339 825.193 150.078 826.391 150.078C828.172 150.078 829.5 150.667 830.375 151.844C831.26 153.01 831.703 154.781 831.703 157.156ZM839.5 150.562H846.859V165.766H852.562V168H838.281V165.766H843.984V152.797H839.5V150.562ZM843.984 143.766H846.859V147.391H843.984V143.766ZM865.078 161.672C865.078 162.964 865.312 163.938 865.781 164.594C866.26 165.25 866.964 165.578 867.891 165.578H871.25V168H867.609C865.891 168 864.557 167.453 863.609 166.359C862.672 165.255 862.203 163.693 862.203 161.672V145.844H857.594V143.594H865.078V161.672ZM886.531 152.734V143.688H889.406V168H886.531V165.797C886.052 166.661 885.411 167.323 884.609 167.781C883.818 168.229 882.901 168.453 881.859 168.453C879.745 168.453 878.078 167.635 876.859 166C875.651 164.354 875.047 162.089 875.047 159.203C875.047 156.359 875.656 154.13 876.875 152.516C878.094 150.891 879.755 150.078 881.859 150.078C882.911 150.078 883.839 150.307 884.641 150.766C885.443 151.214 886.073 151.87 886.531 152.734ZM878.078 159.266C878.078 161.495 878.432 163.177 879.141 164.312C879.849 165.448 880.896 166.016 882.281 166.016C883.667 166.016 884.719 165.443 885.438 164.297C886.167 163.151 886.531 161.474 886.531 159.266C886.531 157.047 886.167 155.37 885.438 154.234C884.719 153.089 883.667 152.516 882.281 152.516C880.896 152.516 879.849 153.083 879.141 154.219C878.432 155.354 878.078 157.036 878.078 159.266ZM910.453 154.109C909.839 153.63 909.214 153.281 908.578 153.062C907.943 152.844 907.245 152.734 906.484 152.734C904.693 152.734 903.323 153.297 902.375 154.422C901.427 155.547 900.953 157.172 900.953 159.297V168H898.062V150.5H900.953V153.922C901.432 152.682 902.167 151.734 903.156 151.078C904.156 150.411 905.339 150.078 906.703 150.078C907.411 150.078 908.073 150.167 908.688 150.344C909.302 150.521 909.891 150.797 910.453 151.172V154.109ZM929.188 157.812V159.219H916.734V159.312C916.651 161.698 917.104 163.411 918.094 164.453C919.094 165.495 920.5 166.016 922.312 166.016C923.229 166.016 924.188 165.87 925.188 165.578C926.188 165.286 927.255 164.844 928.391 164.25V167.109C927.297 167.557 926.24 167.891 925.219 168.109C924.208 168.339 923.229 168.453 922.281 168.453C919.562 168.453 917.438 167.641 915.906 166.016C914.375 164.38 913.609 162.13 913.609 159.266C913.609 156.474 914.359 154.245 915.859 152.578C917.359 150.911 919.359 150.078 921.859 150.078C924.089 150.078 925.844 150.833 927.125 152.344C928.417 153.854 929.104 155.677 929.188 157.812ZM926.312 156.969C926.188 155.76 925.745 154.719 924.984 153.844C924.234 152.958 923.151 152.516 921.734 152.516C920.349 152.516 919.208 152.974 918.312 153.891C917.417 154.807 916.927 155.839 916.844 156.984L926.312 156.969ZM947.391 157.156V168H944.5V157.156C944.5 155.583 944.224 154.427 943.672 153.688C943.12 152.948 942.255 152.578 941.078 152.578C939.734 152.578 938.698 153.057 937.969 154.016C937.25 154.964 936.891 156.328 936.891 158.109V168H934.016V150.5H936.891V153.125C937.401 152.125 938.094 151.37 938.969 150.859C939.844 150.339 940.88 150.078 942.078 150.078C943.859 150.078 945.188 150.667 946.062 151.844C946.948 153.01 947.391 154.781 947.391 157.156Z" fill="#0000DB"/>
<line x1="289" y1="63.5" x2="693" y2="63.5" stroke="#6100FF" stroke-width="3"/>
<line x1="691.5" y1="62" x2="691.5" y2="47" stroke="#6100FF" stroke-width="3"/>
<line x1="290.5" y1="47" x2="290.5" y2="62" stroke="#6100FF" stroke-width="3"/>
<line x1="396.5" y1="162" x2="396.5" y2="62" stroke="#6100FF" stroke-width="3"/>
<line x1="398" y1="160.5" x2="432" y2="160.5" stroke="#6100FF" stroke-width="3"/>
<path d="M442.859 165.797V174.656H439.969V150.5H442.859V152.734C443.339 151.87 443.974 151.214 444.766 150.766C445.568 150.307 446.49 150.078 447.531 150.078C449.646 150.078 451.302 150.896 452.5 152.531C453.708 154.167 454.312 156.432 454.312 159.328C454.312 162.172 453.708 164.406 452.5 166.031C451.292 167.646 449.635 168.453 447.531 168.453C446.469 168.453 445.536 168.229 444.734 167.781C443.943 167.323 443.318 166.661 442.859 165.797ZM451.297 159.266C451.297 157.036 450.943 155.354 450.234 154.219C449.536 153.083 448.495 152.516 447.109 152.516C445.714 152.516 444.656 153.089 443.938 154.234C443.219 155.37 442.859 157.047 442.859 159.266C442.859 161.474 443.219 163.151 443.938 164.297C444.656 165.443 445.714 166.016 447.109 166.016C448.495 166.016 449.536 165.448 450.234 164.312C450.943 163.177 451.297 161.495 451.297 159.266ZM474.328 154.109C473.714 153.63 473.089 153.281 472.453 153.062C471.818 152.844 471.12 152.734 470.359 152.734C468.568 152.734 467.198 153.297 466.25 154.422C465.302 155.547 464.828 157.172 464.828 159.297V168H461.938V150.5H464.828V153.922C465.307 152.682 466.042 151.734 467.031 151.078C468.031 150.411 469.214 150.078 470.578 150.078C471.286 150.078 471.948 150.167 472.562 150.344C473.177 150.521 473.766 150.797 474.328 151.172V154.109ZM485.188 152.516C483.729 152.516 482.625 153.083 481.875 154.219C481.125 155.354 480.75 157.036 480.75 159.266C480.75 161.484 481.125 163.167 481.875 164.312C482.625 165.448 483.729 166.016 485.188 166.016C486.656 166.016 487.766 165.448 488.516 164.312C489.266 163.167 489.641 161.484 489.641 159.266C489.641 157.036 489.266 155.354 488.516 154.219C487.766 153.083 486.656 152.516 485.188 152.516ZM485.188 150.078C487.615 150.078 489.469 150.865 490.75 152.438C492.042 154.01 492.688 156.286 492.688 159.266C492.688 162.255 492.047 164.536 490.766 166.109C489.484 167.672 487.625 168.453 485.188 168.453C482.76 168.453 480.906 167.672 479.625 166.109C478.344 164.536 477.703 162.255 477.703 159.266C477.703 156.286 478.344 154.01 479.625 152.438C480.906 150.865 482.76 150.078 485.188 150.078ZM500.703 165.797V174.656H497.812V150.5H500.703V152.734C501.182 151.87 501.818 151.214 502.609 150.766C503.411 150.307 504.333 150.078 505.375 150.078C507.49 150.078 509.146 150.896 510.344 152.531C511.552 154.167 512.156 156.432 512.156 159.328C512.156 162.172 511.552 164.406 510.344 166.031C509.135 167.646 507.479 168.453 505.375 168.453C504.312 168.453 503.38 168.229 502.578 167.781C501.786 167.323 501.161 166.661 500.703 165.797ZM509.141 159.266C509.141 157.036 508.786 155.354 508.078 154.219C507.38 153.083 506.339 152.516 504.953 152.516C503.557 152.516 502.5 153.089 501.781 154.234C501.062 155.37 500.703 157.047 500.703 159.266C500.703 161.474 501.062 163.151 501.781 164.297C502.5 165.443 503.557 166.016 504.953 166.016C506.339 166.016 507.38 165.448 508.078 164.312C508.786 163.177 509.141 161.495 509.141 159.266ZM529.328 151.109V153.922C528.505 153.443 527.677 153.083 526.844 152.844C526.01 152.604 525.161 152.484 524.297 152.484C522.995 152.484 522.021 152.698 521.375 153.125C520.74 153.542 520.422 154.182 520.422 155.047C520.422 155.828 520.661 156.411 521.141 156.797C521.62 157.182 522.812 157.557 524.719 157.922L525.875 158.141C527.302 158.411 528.38 158.953 529.109 159.766C529.849 160.578 530.219 161.635 530.219 162.938C530.219 164.667 529.604 166.021 528.375 167C527.146 167.969 525.438 168.453 523.25 168.453C522.385 168.453 521.479 168.359 520.531 168.172C519.583 167.995 518.557 167.724 517.453 167.359V164.391C518.526 164.943 519.552 165.359 520.531 165.641C521.51 165.911 522.438 166.047 523.312 166.047C524.583 166.047 525.568 165.792 526.266 165.281C526.964 164.76 527.312 164.036 527.312 163.109C527.312 161.776 526.036 160.854 523.484 160.344L523.359 160.312L522.281 160.094C520.625 159.771 519.417 159.229 518.656 158.469C517.896 157.698 517.516 156.651 517.516 155.328C517.516 153.651 518.083 152.359 519.219 151.453C520.354 150.536 521.974 150.078 524.078 150.078C525.016 150.078 525.917 150.167 526.781 150.344C527.646 150.51 528.495 150.766 529.328 151.109Z" fill="#6100FF"/>
<line x1="231" y1="63.5" x2="271" y2="63.5" stroke="#F00090" stroke-width="3"/>
<line x1="269.5" y1="62" x2="269.5" y2="47" stroke="#F00090" stroke-width="3"/>
<line x1="232.5" y1="47" x2="232.5" y2="62" stroke="#F00090" stroke-width="3"/>
<line x1="1003" y1="63.5" x2="1042" y2="63.5" stroke="#F00090" stroke-width="3"/>
<line x1="1040.5" y1="62" x2="1040.5" y2="47" stroke="#F00090" stroke-width="3"/>
<line x1="1004.5" y1="47" x2="1004.5" y2="62" stroke="#F00090" stroke-width="3"/>
<line x1="765" y1="112.5" x2="1021" y2="112.5" stroke="#F00090" stroke-width="3"/>
<line x1="250.5" y1="64" x2="250.5" y2="114" stroke="#F00090" stroke-width="3"/>
<line x1="252" y1="112.5" x2="286" y2="112.5" stroke="#F00090" stroke-width="3"/>
<line x1="1022.5" y1="62" x2="1022.5" y2="114" stroke="#F00090" stroke-width="3"/>
<line x1="406" y1="112.5" x2="746" y2="112.5" stroke="#F00090" stroke-width="3"/>
<line x1="355" y1="112.5" x2="387" y2="112.5" stroke="#F00090" stroke-width="3"/>
<path d="M301.594 102.531V107.5H308.125V109.734H301.594V119.234C301.594 120.526 301.839 121.427 302.328 121.938C302.818 122.448 303.672 122.703 304.891 122.703H308.125V125H304.609C302.453 125 300.932 124.568 300.047 123.703C299.161 122.839 298.719 121.349 298.719 119.234V109.734H294.047V107.5H298.719V102.531H301.594ZM322.25 116.203H321.297C319.62 116.203 318.354 116.5 317.5 117.094C316.656 117.677 316.234 118.552 316.234 119.719C316.234 120.771 316.552 121.589 317.188 122.172C317.823 122.755 318.703 123.047 319.828 123.047C321.411 123.047 322.656 122.5 323.562 121.406C324.469 120.302 324.927 118.781 324.938 116.844V116.203H322.25ZM327.828 115.016V125H324.938V122.406C324.323 123.448 323.547 124.219 322.609 124.719C321.682 125.208 320.552 125.453 319.219 125.453C317.438 125.453 316.016 124.953 314.953 123.953C313.891 122.943 313.359 121.594 313.359 119.906C313.359 117.958 314.01 116.479 315.312 115.469C316.625 114.458 318.547 113.953 321.078 113.953H324.938V113.5C324.927 112.104 324.573 111.094 323.875 110.469C323.177 109.833 322.062 109.516 320.531 109.516C319.552 109.516 318.562 109.656 317.562 109.938C316.562 110.219 315.589 110.63 314.641 111.172V108.297C315.703 107.891 316.719 107.589 317.688 107.391C318.667 107.182 319.615 107.078 320.531 107.078C321.979 107.078 323.214 107.292 324.234 107.719C325.266 108.146 326.099 108.786 326.734 109.641C327.13 110.161 327.411 110.807 327.578 111.578C327.745 112.339 327.828 113.484 327.828 115.016ZM343.969 116.109C343.969 113.953 343.615 112.318 342.906 111.203C342.208 110.078 341.188 109.516 339.844 109.516C338.438 109.516 337.365 110.078 336.625 111.203C335.885 112.318 335.516 113.953 335.516 116.109C335.516 118.266 335.885 119.911 336.625 121.047C337.375 122.172 338.458 122.734 339.875 122.734C341.198 122.734 342.208 122.167 342.906 121.031C343.615 119.896 343.969 118.255 343.969 116.109ZM346.844 123.875C346.844 126.5 346.224 128.49 344.984 129.844C343.745 131.198 341.922 131.875 339.516 131.875C338.724 131.875 337.896 131.802 337.031 131.656C336.167 131.51 335.302 131.297 334.438 131.016V128.172C335.458 128.651 336.385 129.005 337.219 129.234C338.052 129.464 338.818 129.578 339.516 129.578C341.068 129.578 342.198 129.156 342.906 128.312C343.615 127.469 343.969 126.13 343.969 124.297V124.172V122.219C343.51 123.198 342.885 123.927 342.094 124.406C341.302 124.885 340.339 125.125 339.203 125.125C337.161 125.125 335.531 124.307 334.312 122.672C333.094 121.036 332.484 118.849 332.484 116.109C332.484 113.359 333.094 111.167 334.312 109.531C335.531 107.896 337.161 107.078 339.203 107.078C340.328 107.078 341.281 107.302 342.062 107.75C342.844 108.198 343.479 108.891 343.969 109.828V107.562H346.844V123.875Z" fill="#F00090"/>
<path d="M16.5781 29.1094C15.8073 29.5573 15.0104 29.8906 14.1875 30.1094C13.375 30.3385 12.5417 30.4531 11.6875 30.4531C8.97917 30.4531 6.85938 29.6406 5.32812 28.0156C3.80729 26.3906 3.04688 24.1406 3.04688 21.2656C3.04688 18.3906 3.80729 16.1406 5.32812 14.5156C6.85938 12.8906 8.97917 12.0781 11.6875 12.0781C12.5312 12.0781 13.3542 12.1875 14.1562 12.4062C14.9583 12.625 15.7656 12.9635 16.5781 13.4219V16.4375C15.8177 15.7604 15.0521 15.2708 14.2812 14.9688C13.5208 14.6667 12.6562 14.5156 11.6875 14.5156C9.88542 14.5156 8.5 15.099 7.53125 16.2656C6.5625 17.4323 6.07812 19.099 6.07812 21.2656C6.07812 23.4219 6.5625 25.0885 7.53125 26.2656C8.51042 27.4323 9.89583 28.0156 11.6875 28.0156C12.6875 28.0156 13.5833 27.8646 14.375 27.5625C15.1667 27.25 15.901 26.7708 16.5781 26.125V29.1094ZM28.9062 14.5156C27.4479 14.5156 26.3438 15.0833 25.5938 16.2188C24.8438 17.3542 24.4688 19.0365 24.4688 21.2656C24.4688 23.4844 24.8438 25.1667 25.5938 26.3125C26.3438 27.4479 27.4479 28.0156 28.9062 28.0156C30.375 28.0156 31.4844 27.4479 32.2344 26.3125C32.9844 25.1667 33.3594 23.4844 33.3594 21.2656C33.3594 19.0365 32.9844 17.3542 32.2344 16.2188C31.4844 15.0833 30.375 14.5156 28.9062 14.5156ZM28.9062 12.0781C31.3333 12.0781 33.1875 12.8646 34.4688 14.4375C35.7604 16.0104 36.4062 18.2865 36.4062 21.2656C36.4062 24.2552 35.7656 26.5365 34.4844 28.1094C33.2031 29.6719 31.3438 30.4531 28.9062 30.4531C26.4792 30.4531 24.625 29.6719 23.3438 28.1094C22.0625 26.5365 21.4219 24.2552 21.4219 21.2656C21.4219 18.2865 22.0625 16.0104 23.3438 14.4375C24.625 12.8646 26.4792 12.0781 28.9062 12.0781ZM54.9844 19.1562V30H52.0938V19.1562C52.0938 17.5833 51.8177 16.4271 51.2656 15.6875C50.7135 14.9479 49.849 14.5781 48.6719 14.5781C47.3281 14.5781 46.2917 15.0573 45.5625 16.0156C44.8438 16.9635 44.4844 18.3281 44.4844 20.1094V30H41.6094V12.5H44.4844V15.125C44.9948 14.125 45.6875 13.3698 46.5625 12.8594C47.4375 12.3385 48.474 12.0781 49.6719 12.0781C51.4531 12.0781 52.7812 12.6667 53.6562 13.8438C54.5417 15.0104 54.9844 16.7812 54.9844 19.1562ZM73.0469 13.1094V15.9219C72.224 15.4427 71.3958 15.0833 70.5625 14.8438C69.7292 14.6042 68.8802 14.4844 68.0156 14.4844C66.7135 14.4844 65.7396 14.6979 65.0938 15.125C64.4583 15.5417 64.1406 16.1823 64.1406 17.0469C64.1406 17.8281 64.3802 18.4115 64.8594 18.7969C65.3385 19.1823 66.5312 19.5573 68.4375 19.9219L69.5938 20.1406C71.0208 20.4115 72.099 20.9531 72.8281 21.7656C73.5677 22.5781 73.9375 23.6354 73.9375 24.9375C73.9375 26.6667 73.3229 28.0208 72.0938 29C70.8646 29.9688 69.1562 30.4531 66.9688 30.4531C66.1042 30.4531 65.1979 30.3594 64.25 30.1719C63.3021 29.9948 62.276 29.724 61.1719 29.3594V26.3906C62.2448 26.9427 63.2708 27.3594 64.25 27.6406C65.2292 27.9115 66.1562 28.0469 67.0312 28.0469C68.3021 28.0469 69.2865 27.7917 69.9844 27.2812C70.6823 26.7604 71.0312 26.0365 71.0312 25.1094C71.0312 23.776 69.7552 22.8542 67.2031 22.3438L67.0781 22.3125L66 22.0938C64.3438 21.7708 63.1354 21.2292 62.375 20.4688C61.6146 19.6979 61.2344 18.651 61.2344 17.3281C61.2344 15.651 61.8021 14.3594 62.9375 13.4531C64.0729 12.5365 65.6927 12.0781 67.7969 12.0781C68.7344 12.0781 69.6354 12.1667 70.5 12.3438C71.3646 12.5104 72.2135 12.7656 73.0469 13.1094ZM86.7188 7.53125V12.5H93.25V14.7344H86.7188V24.2344C86.7188 25.526 86.9635 26.4271 87.4531 26.9375C87.9427 27.4479 88.7969 27.7031 90.0156 27.7031H93.25V30H89.7344C87.5781 30 86.0573 29.5677 85.1719 28.7031C84.2865 27.8385 83.8438 26.349 83.8438 24.2344V14.7344H79.1719V12.5H83.8438V7.53125H86.7188ZM133.188 19.8125V21.2188H120.734V21.3125C120.651 23.6979 121.104 25.4115 122.094 26.4531C123.094 27.4948 124.5 28.0156 126.312 28.0156C127.229 28.0156 128.188 27.8698 129.188 27.5781C130.188 27.2865 131.255 26.8438 132.391 26.25V29.1094C131.297 29.5573 130.24 29.8906 129.219 30.1094C128.208 30.3385 127.229 30.4531 126.281 30.4531C123.562 30.4531 121.438 29.6406 119.906 28.0156C118.375 26.3802 117.609 24.1302 117.609 21.2656C117.609 18.474 118.359 16.2448 119.859 14.5781C121.359 12.9115 123.359 12.0781 125.859 12.0781C128.089 12.0781 129.844 12.8333 131.125 14.3438C132.417 15.8542 133.104 17.6771 133.188 19.8125ZM130.312 18.9688C130.188 17.7604 129.745 16.7188 128.984 15.8438C128.234 14.9583 127.151 14.5156 125.734 14.5156C124.349 14.5156 123.208 14.974 122.312 15.8906C121.417 16.8073 120.927 17.8385 120.844 18.9844L130.312 18.9688ZM146.203 23.6719C146.203 24.9635 146.438 25.9375 146.906 26.5938C147.385 27.25 148.089 27.5781 149.016 27.5781H152.375V30H148.734C147.016 30 145.682 29.4531 144.734 28.3594C143.797 27.2552 143.328 25.6927 143.328 23.6719V7.84375H138.719V5.59375H146.203V23.6719ZM174.906 22.1875H191.422V24.8281H174.906V22.1875ZM174.906 14.8281H191.422V17.4688H174.906V14.8281Z" fill="#888888"/>
<path d="M229.984 14.9844L216.703 19.9844L229.984 24.9375V27.7969L213.469 21.2656V18.6719L229.984 12.1406V14.9844ZM695.5 14.9844V12.1406L712.016 18.6719V21.2656L695.5 27.7969V24.9375L708.781 19.9844L695.5 14.9844ZM981.953 14.9844L968.672 19.9844L981.953 24.9375V27.7969L965.438 21.2656V18.6719L981.953 12.1406V14.9844ZM997.234 6.67188H1000.2L987.922 32.9688H984.938L997.234 6.67188ZM1042.56 14.9844V12.1406L1059.08 18.6719V21.2656L1042.56 27.7969V24.9375L1055.84 19.9844L1042.56 14.9844Z" fill="black"/>
<path d="M247.797 19.1562V30H244.906V19.1562C244.906 17.5833 244.63 16.4271 244.078 15.6875C243.526 14.9479 242.661 14.5781 241.484 14.5781C240.141 14.5781 239.104 15.0573 238.375 16.0156C237.656 16.9635 237.297 18.3281 237.297 20.1094V30H234.422V5.6875H237.297V15.125C237.807 14.125 238.5 13.3698 239.375 12.8594C240.25 12.3385 241.286 12.0781 242.484 12.0781C244.266 12.0781 245.594 12.6667 246.469 13.8438C247.354 15.0104 247.797 16.7812 247.797 19.1562ZM254.875 27.3594H259.781V9.73438L253.906 12.5625V9.53125L259.75 6.75H262.906V27.3594H267.75V30H254.875V27.3594ZM1019.05 19.1562V30H1016.16V19.1562C1016.16 17.5833 1015.88 16.4271 1015.33 15.6875C1014.78 14.9479 1013.91 14.5781 1012.73 14.5781C1011.39 14.5781 1010.35 15.0573 1009.62 16.0156C1008.91 16.9635 1008.55 18.3281 1008.55 20.1094V30H1005.67V5.6875H1008.55V15.125C1009.06 14.125 1009.75 13.3698 1010.62 12.8594C1011.5 12.3385 1012.54 12.0781 1013.73 12.0781C1015.52 12.0781 1016.84 12.6667 1017.72 13.8438C1018.6 15.0104 1019.05 16.7812 1019.05 19.1562ZM1026.12 27.3594H1031.03V9.73438L1025.16 12.5625V9.53125L1031 6.75H1034.16V27.3594H1039V30H1026.12V27.3594Z" fill="#F00090"/>
<path d="M294.156 12.5625H301.516V27.7656H307.219V30H292.938V27.7656H298.641V14.7969H294.156V12.5625ZM298.641 5.76562H301.516V9.39062H298.641V5.76562ZM321.906 14.7344V5.6875H324.781V30H321.906V27.7969C321.427 28.6615 320.786 29.3229 319.984 29.7812C319.193 30.2292 318.276 30.4531 317.234 30.4531C315.12 30.4531 313.453 29.6354 312.234 28C311.026 26.3542 310.422 24.0885 310.422 21.2031C310.422 18.3594 311.031 16.1302 312.25 14.5156C313.469 12.8906 315.13 12.0781 317.234 12.0781C318.286 12.0781 319.214 12.3073 320.016 12.7656C320.818 13.2135 321.448 13.8698 321.906 14.7344ZM313.453 21.2656C313.453 23.4948 313.807 25.1771 314.516 26.3125C315.224 27.4479 316.271 28.0156 317.656 28.0156C319.042 28.0156 320.094 27.4427 320.812 26.2969C321.542 25.151 321.906 23.474 321.906 21.2656C321.906 19.0469 321.542 17.3698 320.812 16.2344C320.094 15.0885 319.042 14.5156 317.656 14.5156C316.271 14.5156 315.224 15.0833 314.516 16.2188C313.807 17.3542 313.453 19.0365 313.453 21.2656ZM329.156 22.1875H345.672V24.8281H329.156V22.1875ZM329.156 14.8281H345.672V17.4688H329.156V14.8281ZM363.188 30.7969V33.0469H362.188C359.594 33.0469 357.854 32.6615 356.969 31.8906C356.094 31.1198 355.656 29.5833 355.656 27.2812V24.1562C355.656 23.0208 355.333 22.0417 354.688 21.2188C354.052 20.3958 353.062 19.9844 351.719 19.9844H349.812V17.75H351.719C353.188 17.75 354.208 17.401 354.781 16.7031C355.365 16.0052 355.656 14.9792 355.656 13.625V9.5625C355.656 7.26042 356.094 5.72917 356.969 4.96875C357.854 4.19792 359.594 3.8125 362.188 3.8125H363.188V6.04688H362.094C360.635 6.04688 359.682 6.27604 359.234 6.73438C358.797 7.18229 358.578 8.14583 358.578 9.625V13.8125C358.578 15.6458 358.219 16.8802 357.5 17.5156C356.781 18.1406 355.38 18.5938 353.297 18.875C355.318 19.1146 356.703 19.5781 357.453 20.2656C358.203 20.9427 358.578 22.1719 358.578 23.9531V27.2188C358.578 28.7083 358.797 29.6771 359.234 30.125C359.682 30.5729 360.635 30.7969 362.094 30.7969H363.188ZM371.281 12.5625H378.641V27.7656H384.344V30H370.062V27.7656H375.766V14.7969H371.281V12.5625ZM375.766 5.76562H378.641V9.39062H375.766V5.76562ZM399.031 14.7344V5.6875H401.906V30H399.031V27.7969C398.552 28.6615 397.911 29.3229 397.109 29.7812C396.318 30.2292 395.401 30.4531 394.359 30.4531C392.245 30.4531 390.578 29.6354 389.359 28C388.151 26.3542 387.547 24.0885 387.547 21.2031C387.547 18.3594 388.156 16.1302 389.375 14.5156C390.594 12.8906 392.255 12.0781 394.359 12.0781C395.411 12.0781 396.339 12.3073 397.141 12.7656C397.943 13.2135 398.573 13.8698 399.031 14.7344ZM390.578 21.2656C390.578 23.4948 390.932 25.1771 391.641 26.3125C392.349 27.4479 393.396 28.0156 394.781 28.0156C396.167 28.0156 397.219 27.4427 397.938 26.2969C398.667 25.151 399.031 23.474 399.031 21.2656C399.031 19.0469 398.667 17.3698 397.938 16.2344C397.219 15.0885 396.167 14.5156 394.781 14.5156C393.396 14.5156 392.349 15.0833 391.641 16.2188C390.932 17.3542 390.578 19.0365 390.578 21.2656ZM409.422 30.7969C410.88 30.7969 411.828 30.5729 412.266 30.125C412.714 29.6771 412.938 28.7083 412.938 27.2188V23.9531C412.938 22.1719 413.312 20.9427 414.062 20.2656C414.812 19.5781 416.198 19.1146 418.219 18.875C416.135 18.5938 414.734 18.1406 414.016 17.5156C413.297 16.8802 412.938 15.6458 412.938 13.8125V9.625C412.938 8.14583 412.714 7.18229 412.266 6.73438C411.828 6.27604 410.88 6.04688 409.422 6.04688H408.328V3.8125H409.328C411.922 3.8125 413.656 4.19792 414.531 4.96875C415.417 5.72917 415.859 7.26042 415.859 9.5625V13.625C415.859 14.9792 416.146 16.0052 416.719 16.7031C417.302 17.401 418.328 17.75 419.797 17.75H421.703V19.9844H419.797C418.453 19.9844 417.458 20.3958 416.812 21.2188C416.177 22.0417 415.859 23.0208 415.859 24.1562V27.2812C415.859 29.5833 415.417 31.1198 414.531 31.8906C413.656 32.6615 411.922 33.0469 409.328 33.0469H408.328V30.7969H409.422ZM460.047 29.1094C459.276 29.5573 458.479 29.8906 457.656 30.1094C456.844 30.3385 456.01 30.4531 455.156 30.4531C452.448 30.4531 450.328 29.6406 448.797 28.0156C447.276 26.3906 446.516 24.1406 446.516 21.2656C446.516 18.3906 447.276 16.1406 448.797 14.5156C450.328 12.8906 452.448 12.0781 455.156 12.0781C456 12.0781 456.823 12.1875 457.625 12.4062C458.427 12.625 459.234 12.9635 460.047 13.4219V16.4375C459.286 15.7604 458.521 15.2708 457.75 14.9688C456.99 14.6667 456.125 14.5156 455.156 14.5156C453.354 14.5156 451.969 15.099 451 16.2656C450.031 17.4323 449.547 19.099 449.547 21.2656C449.547 23.4219 450.031 25.0885 451 26.2656C451.979 27.4323 453.365 28.0156 455.156 28.0156C456.156 28.0156 457.052 27.8646 457.844 27.5625C458.635 27.25 459.37 26.7708 460.047 26.125V29.1094ZM473.984 23.6719C473.984 24.9635 474.219 25.9375 474.688 26.5938C475.167 27.25 475.87 27.5781 476.797 27.5781H480.156V30H476.516C474.797 30 473.464 29.4531 472.516 28.3594C471.578 27.2552 471.109 25.6927 471.109 23.6719V7.84375H466.5V5.59375H473.984V23.6719ZM493 21.2031H492.047C490.37 21.2031 489.104 21.5 488.25 22.0938C487.406 22.6771 486.984 23.5521 486.984 24.7188C486.984 25.7708 487.302 26.5885 487.938 27.1719C488.573 27.7552 489.453 28.0469 490.578 28.0469C492.161 28.0469 493.406 27.5 494.312 26.4062C495.219 25.3021 495.677 23.7812 495.688 21.8438V21.2031H493ZM498.578 20.0156V30H495.688V27.4062C495.073 28.4479 494.297 29.2188 493.359 29.7188C492.432 30.2083 491.302 30.4531 489.969 30.4531C488.188 30.4531 486.766 29.9531 485.703 28.9531C484.641 27.9427 484.109 26.5938 484.109 24.9062C484.109 22.9583 484.76 21.4792 486.062 20.4688C487.375 19.4583 489.297 18.9531 491.828 18.9531H495.688V18.5C495.677 17.1042 495.323 16.0938 494.625 15.4688C493.927 14.8333 492.812 14.5156 491.281 14.5156C490.302 14.5156 489.312 14.6562 488.312 14.9375C487.312 15.2188 486.339 15.6302 485.391 16.1719V13.2969C486.453 12.8906 487.469 12.5885 488.438 12.3906C489.417 12.1823 490.365 12.0781 491.281 12.0781C492.729 12.0781 493.964 12.2917 494.984 12.7188C496.016 13.1458 496.849 13.7865 497.484 14.6406C497.88 15.1615 498.161 15.8073 498.328 16.5781C498.495 17.3385 498.578 18.4844 498.578 20.0156ZM516.516 13.1094V15.9219C515.693 15.4427 514.865 15.0833 514.031 14.8438C513.198 14.6042 512.349 14.4844 511.484 14.4844C510.182 14.4844 509.208 14.6979 508.562 15.125C507.927 15.5417 507.609 16.1823 507.609 17.0469C507.609 17.8281 507.849 18.4115 508.328 18.7969C508.807 19.1823 510 19.5573 511.906 19.9219L513.062 20.1406C514.49 20.4115 515.568 20.9531 516.297 21.7656C517.036 22.5781 517.406 23.6354 517.406 24.9375C517.406 26.6667 516.792 28.0208 515.562 29C514.333 29.9688 512.625 30.4531 510.438 30.4531C509.573 30.4531 508.667 30.3594 507.719 30.1719C506.771 29.9948 505.745 29.724 504.641 29.3594V26.3906C505.714 26.9427 506.74 27.3594 507.719 27.6406C508.698 27.9115 509.625 28.0469 510.5 28.0469C511.771 28.0469 512.755 27.7917 513.453 27.2812C514.151 26.7604 514.5 26.0365 514.5 25.1094C514.5 23.776 513.224 22.8542 510.672 22.3438L510.547 22.3125L509.469 22.0938C507.812 21.7708 506.604 21.2292 505.844 20.4688C505.083 19.6979 504.703 18.651 504.703 17.3281C504.703 15.651 505.271 14.3594 506.406 13.4531C507.542 12.5365 509.161 12.0781 511.266 12.0781C512.203 12.0781 513.104 12.1667 513.969 12.3438C514.833 12.5104 515.682 12.7656 516.516 13.1094ZM535.797 13.1094V15.9219C534.974 15.4427 534.146 15.0833 533.312 14.8438C532.479 14.6042 531.63 14.4844 530.766 14.4844C529.464 14.4844 528.49 14.6979 527.844 15.125C527.208 15.5417 526.891 16.1823 526.891 17.0469C526.891 17.8281 527.13 18.4115 527.609 18.7969C528.089 19.1823 529.281 19.5573 531.188 19.9219L532.344 20.1406C533.771 20.4115 534.849 20.9531 535.578 21.7656C536.318 22.5781 536.688 23.6354 536.688 24.9375C536.688 26.6667 536.073 28.0208 534.844 29C533.615 29.9688 531.906 30.4531 529.719 30.4531C528.854 30.4531 527.948 30.3594 527 30.1719C526.052 29.9948 525.026 29.724 523.922 29.3594V26.3906C524.995 26.9427 526.021 27.3594 527 27.6406C527.979 27.9115 528.906 28.0469 529.781 28.0469C531.052 28.0469 532.036 27.7917 532.734 27.2812C533.432 26.7604 533.781 26.0365 533.781 25.1094C533.781 23.776 532.505 22.8542 529.953 22.3438L529.828 22.3125L528.75 22.0938C527.094 21.7708 525.885 21.2292 525.125 20.4688C524.365 19.6979 523.984 18.651 523.984 17.3281C523.984 15.651 524.552 14.3594 525.688 13.4531C526.823 12.5365 528.443 12.0781 530.547 12.0781C531.484 12.0781 532.385 12.1667 533.25 12.3438C534.115 12.5104 534.964 12.7656 535.797 13.1094ZM541.25 22.1875H557.766V24.8281H541.25V22.1875ZM541.25 14.8281H557.766V17.4688H541.25V14.8281ZM573.922 5.82812V15.3906H570.422V5.82812H573.922ZM565.594 5.82812V15.3906H562.094V5.82812H565.594ZM594.859 19.1562V30H591.969V19.1562C591.969 17.5833 591.693 16.4271 591.141 15.6875C590.589 14.9479 589.724 14.5781 588.547 14.5781C587.203 14.5781 586.167 15.0573 585.438 16.0156C584.719 16.9635 584.359 18.3281 584.359 20.1094V30H581.484V5.6875H584.359V15.125C584.87 14.125 585.562 13.3698 586.438 12.8594C587.312 12.3385 588.349 12.0781 589.547 12.0781C591.328 12.0781 592.656 12.6667 593.531 13.8438C594.417 15.0104 594.859 16.7812 594.859 19.1562ZM615.219 19.8125V21.2188H602.766V21.3125C602.682 23.6979 603.135 25.4115 604.125 26.4531C605.125 27.4948 606.531 28.0156 608.344 28.0156C609.26 28.0156 610.219 27.8698 611.219 27.5781C612.219 27.2865 613.286 26.8438 614.422 26.25V29.1094C613.328 29.5573 612.271 29.8906 611.25 30.1094C610.24 30.3385 609.26 30.4531 608.312 30.4531C605.594 30.4531 603.469 29.6406 601.938 28.0156C600.406 26.3802 599.641 24.1302 599.641 21.2656C599.641 18.474 600.391 16.2448 601.891 14.5781C603.391 12.9115 605.391 12.0781 607.891 12.0781C610.12 12.0781 611.875 12.8333 613.156 14.3438C614.448 15.8542 615.135 17.6771 615.219 19.8125ZM612.344 18.9688C612.219 17.7604 611.776 16.7188 611.016 15.8438C610.266 14.9583 609.182 14.5156 607.766 14.5156C606.38 14.5156 605.24 14.974 604.344 15.8906C603.448 16.8073 602.958 17.8385 602.875 18.9844L612.344 18.9688ZM628.234 23.6719C628.234 24.9635 628.469 25.9375 628.938 26.5938C629.417 27.25 630.12 27.5781 631.047 27.5781H634.406V30H630.766C629.047 30 627.714 29.4531 626.766 28.3594C625.828 27.2552 625.359 25.6927 625.359 23.6719V7.84375H620.75V5.59375H628.234V23.6719ZM647.516 23.6719C647.516 24.9635 647.75 25.9375 648.219 26.5938C648.698 27.25 649.401 27.5781 650.328 27.5781H653.688V30H650.047C648.328 30 646.995 29.4531 646.047 28.3594C645.109 27.2552 644.641 25.6927 644.641 23.6719V7.84375H640.031V5.59375H647.516V23.6719ZM665.188 14.5156C663.729 14.5156 662.625 15.0833 661.875 16.2188C661.125 17.3542 660.75 19.0365 660.75 21.2656C660.75 23.4844 661.125 25.1667 661.875 26.3125C662.625 27.4479 663.729 28.0156 665.188 28.0156C666.656 28.0156 667.766 27.4479 668.516 26.3125C669.266 25.1667 669.641 23.4844 669.641 21.2656C669.641 19.0365 669.266 17.3542 668.516 16.2188C667.766 15.0833 666.656 14.5156 665.188 14.5156ZM665.188 12.0781C667.615 12.0781 669.469 12.8646 670.75 14.4375C672.042 16.0104 672.688 18.2865 672.688 21.2656C672.688 24.2552 672.047 26.5365 670.766 28.1094C669.484 29.6719 667.625 30.4531 665.188 30.4531C662.76 30.4531 660.906 29.6719 659.625 28.1094C658.344 26.5365 657.703 24.2552 657.703 21.2656C657.703 18.2865 658.344 16.0104 659.625 14.4375C660.906 12.8646 662.76 12.0781 665.188 12.0781ZM689.609 5.82812V15.3906H686.109V5.82812H689.609ZM681.281 5.82812V15.3906H677.781V5.82812H681.281Z" fill="#6100FF"/>
<path d="M715.547 6.67188H718.719V15.6094H727.359V6.67188H730.531V30H727.359V18.2656H718.719V30H715.547V6.67188ZM750.188 19.8125V21.2188H737.734V21.3125C737.651 23.6979 738.104 25.4115 739.094 26.4531C740.094 27.4948 741.5 28.0156 743.312 28.0156C744.229 28.0156 745.188 27.8698 746.188 27.5781C747.188 27.2865 748.255 26.8438 749.391 26.25V29.1094C748.297 29.5573 747.24 29.8906 746.219 30.1094C745.208 30.3385 744.229 30.4531 743.281 30.4531C740.562 30.4531 738.438 29.6406 736.906 28.0156C735.375 26.3802 734.609 24.1302 734.609 21.2656C734.609 18.474 735.359 16.2448 736.859 14.5781C738.359 12.9115 740.359 12.0781 742.859 12.0781C745.089 12.0781 746.844 12.8333 748.125 14.3438C749.417 15.8542 750.104 17.6771 750.188 19.8125ZM747.312 18.9688C747.188 17.7604 746.745 16.7188 745.984 15.8438C745.234 14.9583 744.151 14.5156 742.734 14.5156C741.349 14.5156 740.208 14.974 739.312 15.8906C738.417 16.8073 737.927 17.8385 737.844 18.9844L747.312 18.9688ZM763.203 23.6719C763.203 24.9635 763.438 25.9375 763.906 26.5938C764.385 27.25 765.089 27.5781 766.016 27.5781H769.375V30H765.734C764.016 30 762.682 29.4531 761.734 28.3594C760.797 27.2552 760.328 25.6927 760.328 23.6719V7.84375H755.719V5.59375H763.203V23.6719ZM782.484 23.6719C782.484 24.9635 782.719 25.9375 783.188 26.5938C783.667 27.25 784.37 27.5781 785.297 27.5781H788.656V30H785.016C783.297 30 781.964 29.4531 781.016 28.3594C780.078 27.2552 779.609 25.6927 779.609 23.6719V7.84375H775V5.59375H782.484V23.6719ZM800.156 14.5156C798.698 14.5156 797.594 15.0833 796.844 16.2188C796.094 17.3542 795.719 19.0365 795.719 21.2656C795.719 23.4844 796.094 25.1667 796.844 26.3125C797.594 27.4479 798.698 28.0156 800.156 28.0156C801.625 28.0156 802.734 27.4479 803.484 26.3125C804.234 25.1667 804.609 23.4844 804.609 21.2656C804.609 19.0365 804.234 17.3542 803.484 16.2188C802.734 15.0833 801.625 14.5156 800.156 14.5156ZM800.156 12.0781C802.583 12.0781 804.438 12.8646 805.719 14.4375C807.01 16.0104 807.656 18.2865 807.656 21.2656C807.656 24.2552 807.016 26.5365 805.734 28.1094C804.453 29.6719 802.594 30.4531 800.156 30.4531C797.729 30.4531 795.875 29.6719 794.594 28.1094C793.312 26.5365 792.672 24.2552 792.672 21.2656C792.672 18.2865 793.312 16.0104 794.594 14.4375C795.875 12.8646 797.729 12.0781 800.156 12.0781ZM816.719 24.3594H821.594V28.5L818.125 35.2344L815 35.25L816.719 28.5V24.3594ZM848.375 12.5H851.219L854.266 26.6406L856.766 17.6094H859.219L861.75 26.6406L864.797 12.5H867.641L863.547 30H860.797L858 20.4062L855.219 30H852.469L848.375 12.5ZM877.281 14.5156C875.823 14.5156 874.719 15.0833 873.969 16.2188C873.219 17.3542 872.844 19.0365 872.844 21.2656C872.844 23.4844 873.219 25.1667 873.969 26.3125C874.719 27.4479 875.823 28.0156 877.281 28.0156C878.75 28.0156 879.859 27.4479 880.609 26.3125C881.359 25.1667 881.734 23.4844 881.734 21.2656C881.734 19.0365 881.359 17.3542 880.609 16.2188C879.859 15.0833 878.75 14.5156 877.281 14.5156ZM877.281 12.0781C879.708 12.0781 881.562 12.8646 882.844 14.4375C884.135 16.0104 884.781 18.2865 884.781 21.2656C884.781 24.2552 884.141 26.5365 882.859 28.1094C881.578 29.6719 879.719 30.4531 877.281 30.4531C874.854 30.4531 873 29.6719 871.719 28.1094C870.438 26.5365 869.797 24.2552 869.797 21.2656C869.797 18.2865 870.438 16.0104 871.719 14.4375C873 12.8646 874.854 12.0781 877.281 12.0781ZM904.984 16.1094C904.37 15.6302 903.745 15.2812 903.109 15.0625C902.474 14.8438 901.776 14.7344 901.016 14.7344C899.224 14.7344 897.854 15.2969 896.906 16.4219C895.958 17.5469 895.484 19.1719 895.484 21.2969V30H892.594V12.5H895.484V15.9219C895.964 14.6823 896.698 13.7344 897.688 13.0781C898.688 12.4115 899.87 12.0781 901.234 12.0781C901.943 12.0781 902.604 12.1667 903.219 12.3438C903.833 12.5208 904.422 12.7969 904.984 13.1719V16.1094ZM917.453 23.6719C917.453 24.9635 917.688 25.9375 918.156 26.5938C918.635 27.25 919.339 27.5781 920.266 27.5781H923.625V30H919.984C918.266 30 916.932 29.4531 915.984 28.3594C915.047 27.2552 914.578 25.6927 914.578 23.6719V7.84375H909.969V5.59375H917.453V23.6719ZM938.906 14.7344V5.6875H941.781V30H938.906V27.7969C938.427 28.6615 937.786 29.3229 936.984 29.7812C936.193 30.2292 935.276 30.4531 934.234 30.4531C932.12 30.4531 930.453 29.6354 929.234 28C928.026 26.3542 927.422 24.0885 927.422 21.2031C927.422 18.3594 928.031 16.1302 929.25 14.5156C930.469 12.8906 932.13 12.0781 934.234 12.0781C935.286 12.0781 936.214 12.3073 937.016 12.7656C937.818 13.2135 938.448 13.8698 938.906 14.7344ZM930.453 21.2656C930.453 23.4948 930.807 25.1771 931.516 26.3125C932.224 27.4479 933.271 28.0156 934.656 28.0156C936.042 28.0156 937.094 27.4427 937.812 26.2969C938.542 25.151 938.906 23.474 938.906 21.2656C938.906 19.0469 938.542 17.3698 937.812 16.2344C937.094 15.0885 936.042 14.5156 934.656 14.5156C933.271 14.5156 932.224 15.0833 931.516 16.2188C930.807 17.3542 930.453 19.0365 930.453 21.2656ZM953.312 6.67188H956.484V16.9062L956.156 21.7031H953.641L953.312 16.9062V6.67188ZM952.844 26.0312H956.953V30H952.844V26.0312Z" fill="#0000DB"/>
<path d="M1067.38 24.3594H1072.25V28.5L1069.17 34.4688H1065.83L1067.38 28.5V24.3594ZM1067.17 12.5156H1072.05V18.1562H1067.17V12.5156Z" fill="#999999"/>
</svg>
