<svg clip-rule="evenodd" fill-rule="evenodd" stroke-linejoin="round" stroke-miterlimit="2" version="1.1" viewBox="0 0 1500 1500" xmlns="http://www.w3.org/2000/svg"><g><path d="m750 569.49v180.51 180.51l738.61-55.082a750 750 0 0 0 11.387-125.43 750 750 0 0 0-10.656-125.37l-739.34-55.137z"/><path d="m750 0-23.859 2.3496-10.24 15.092-21.125 42.076-11.994 34.521-5.2559 25.471-1.123 15.43 0.1582 2.6934-2.0781 23.705-8.1074 12.203-59.715 11.879-12.162-8.1738-10.99-21.104-0.88477-2.5488-6.9414-13.826-14.604-21.52-24.291-27.305-35.621-30.789-15.234-10.023-22.943 6.959-21.145 11.303-3.6856 17.861-3.4141 46.959 2.1289 36.482 4.8906 25.543 4.8672 14.686 1.1777 2.4277 7.1504 22.693-2.8184 14.379-50.625 33.826-14.363-2.8965-18.23-15.293-1.793-2.0156-11.703-10.117-21.729-14.293-32.891-15.93-44.691-14.814-17.912-3.4297-18.531 15.211-15.209 18.531 3.4297 17.912 14.814 44.691 15.93 32.891 14.293 21.729 10.117 11.703 2.0156 1.7949 15.293 18.229 2.8965 14.363-33.826 50.625-14.379 2.8184-22.693-7.1504-2.4277-1.1777-14.686-4.8672-25.543-4.8906-36.482-2.1289-46.959 3.4141-17.861 3.6856-11.301 21.145-6.9609 22.943 10.023 15.234 30.789 35.621 27.305 24.291 21.52 14.604 13.826 6.9414 2.5488 0.88476 21.104 10.99 8.1738 12.162-11.879 59.715-12.203 8.1074-23.705 2.0781-2.6934-0.15821-15.43 1.123-25.471 5.2559-34.521 11.994-42.076 21.125-15.092 10.24-2.3496 23.859 2.3496 23.859 15.092 10.24 42.076 21.127 34.521 11.994 25.471 5.2559 15.43 1.1211 2.6934-0.15625 23.703 2.0762 12.205 8.1074 11.877 59.717-8.1719 12.16-21.104 10.99-2.5488 0.88476-13.826 6.9414-21.521 14.605-27.303 24.291-30.789 35.619-10.023 15.236 6.959 22.941 11.303 21.144 17.861 3.6856 46.957 3.416 36.484-2.1289 25.543-4.8926 14.686-4.8672 2.4277-1.1757 22.693-7.1524 14.377 2.8203 33.826 50.623-2.8945 14.363-15.293 18.23-2.0156 1.793-10.117 11.705-14.295 21.726-15.928 32.891-14.814 44.691-3.4297 17.912 15.209 18.533 18.533 15.209 17.912-3.4297 44.691-14.814 32.891-15.93 21.727-14.293 11.705-10.117 1.793-2.0156 18.23-15.293 14.361-2.8965 50.625 33.826 2.8203 14.379-7.1523 22.693-1.1758 2.4278-4.8672 14.686-4.8926 25.543-2.1289 36.484 3.416 46.957 3.6856 17.861 21.145 11.303 22.941 6.9589 15.236-10.023 35.619-30.789 24.293-27.303 14.604-21.522 6.9414-13.826 0.88476-2.5488 10.99-21.104 12.16-8.1738 59.717 11.879 8.1074 12.203 2.0762 23.705-0.15625 2.6933 1.1211 15.43 5.2578 25.471 11.994 34.522 21.125 42.076 10.24 15.092 23.859 2.3496 23.859-2.3496 10.24-15.092 21.125-42.076 11.994-34.522 5.2559-25.471 1.123-15.43-0.15625-2.6933 2.0762-23.705 8.1074-12.203 59.717-11.879 12.16 8.1719 10.99 21.105 0.88476 2.5488 6.9414 13.826 14.604 21.52 24.293 27.305 35.619 30.789 15.236 10.023 22.941-6.9589 21.144-11.303 3.6856-17.861 3.416-46.959-2.1289-36.482-4.8926-25.543-4.8672-14.686-1.1757-2.4278-7.1524-22.695 2.8203-14.377 50.625-33.826 14.361 2.8965 18.23 15.293 1.793 2.0156 11.705 10.117 21.726 14.293 32.891 15.93 44.691 14.814 17.912 3.4297 18.533-15.209 15.209-18.533-3.4297-17.912-14.814-44.691-15.93-32.891-14.293-21.726-10.117-11.705-2.0156-1.793-15.293-18.23-2.8965-14.361 9.9062-14.826-108.18-75.727a450 450 0 0 1-368.48 192.07 450 450 0 0 1-450-450 450 450 0 0 1 450-450 450 450 0 0 1 368.21 192.25l108.44-75.912-9.9062-14.826 2.8945-14.361 15.295-18.23 2.0136-1.793 10.117-11.705 14.295-21.729 15.928-32.891 14.814-44.689 3.4317-17.912-15.211-18.533-18.531-15.209-17.912 3.4297-44.691 14.814-32.891 15.928-21.728 14.295-11.703 10.117-1.7949 2.0156-18.23 15.291-14.361 2.8965-50.625-33.826-2.8203-14.377 7.1523-22.693 1.1758-2.4297 4.8691-14.684 4.8907-25.543 2.1289-36.484-3.4161-46.957-3.6855-17.861-21.143-11.303-22.943-6.959-15.236 10.023-35.619 30.789-24.291 27.303-14.604 21.521-6.9434 13.826-0.88477 2.5488-10.99 21.104-12.16 8.1719-59.715-11.877-8.1094-12.205-2.0762-23.703 0.15821-2.6934-1.123-15.43-5.2559-25.471-11.994-34.521-21.127-42.076-10.24-15.092-23.859-2.3496z"/><circle transform="scale(1,-1)" cx="750" cy="-750" r="241.01" stroke-width=".84703"/></g></svg>
