<svg style="flex: none; background-color: #0a0e1f;" fill="none" viewBox="-200 -200 400 400" width="400" height="400" xmlns="http://www.w3.org/2000/svg"><g stroke="none" fill="#DAA520"><path transform="rotate(0)" d="M 149.39 -16.97 M 149.62 -16.98 M 150.29 -17 M 151.42 -16.97 M 153 -16.85 M 155.02 -16.57 M 157.46 -16.1 M 160.32 -15.39 M 163.56 -14.39 M 167.17 -13.06 M 171.11 -11.35 M 175.36 -9.23 M 179.88 -6.66 M 179.88 6.66 M 175.36 9.23 M 171.11 11.35 M 167.17 13.06 M 163.56 14.39 M 160.32 15.39 M 157.46 16.1 M 155.02 16.57 M 153 16.85 M 151.42 16.97 M 150.29 17 M 149.62 16.98 M 149.39 16.97 A 8 8 0 0 0 144.51 41.5 L 144.73 41.57 L 145.36 41.81 L 146.39 42.27 L 147.8 42.99 L 149.56 44.01 L 151.64 45.38 L 154 47.13 L 156.62 49.29 L 159.44 51.9 L 162.43 54.99 L 165.54 58.58 L 168.73 62.69 L 163.64 74.98 L 158.48 75.64 L 153.74 75.97 L 149.44 76.04 L 145.6 75.89 L 142.22 75.57 L 139.31 75.14 L 136.88 74.63 L 134.91 74.11 L 133.4 73.63 L 132.35 73.22 L 131.73 72.95 L 131.53 72.84 A 8 8 0 0 0 117.63 93.64 L 117.8 93.79 L 118.3 94.25 L 119.07 95.07 L 120.1 96.28 L 121.33 97.9 L 122.73 99.96 L 124.24 102.48 L 125.83 105.48 L 127.44 108.97 L 129.02 112.96 L 130.52 117.47 L 131.9 122.49 L 122.49 131.9 L 117.47 130.52 L 112.96 129.02 L 108.97 127.44 L 105.48 125.83 L 102.48 124.24 L 99.96 122.73 L 97.9 121.33 L 96.28 120.1 L 95.07 119.07 L 94.25 118.3 L 93.79 117.8 L 93.64 117.63 A 8 8 0 0 0 72.84 131.53 L 72.95 131.73 L 73.22 132.35 L 73.63 133.4 L 74.11 134.91 L 74.63 136.88 L 75.14 139.31 L 75.57 142.22 L 75.89 145.6 L 76.04 149.44 L 75.97 153.74 L 75.64 158.48 L 74.98 163.64 L 62.69 168.73 L 58.58 165.54 L 54.99 162.43 L 51.9 159.44 L 49.29 156.62 L 47.13 154 L 45.38 151.64 L 44.01 149.56 L 42.99 147.8 L 42.27 146.39 L 41.81 145.36 L 41.57 144.73 L 41.5 144.51 A 8 8 0 0 0 16.97 149.39 L 16.98 149.62 L 17 150.29 L 16.97 151.42 L 16.85 153 L 16.57 155.02 L 16.1 157.46 L 15.39 160.32 L 14.39 163.56 L 13.06 167.17 L 11.35 171.11 L 9.23 175.36 L 6.66 179.88 L -6.66 179.88 L -9.23 175.36 L -11.35 171.11 L -13.06 167.17 L -14.39 163.56 L -15.39 160.32 L -16.1 157.46 L -16.57 155.02 L -16.85 153 L -16.97 151.42 L -17 150.29 L -16.98 149.62 L -16.97 149.39 A 8 8 0 0 0 -41.5 144.51 L -41.57 144.73 L -41.81 145.36 L -42.27 146.39 L -42.99 147.8 L -44.01 149.56 L -45.38 151.64 L -47.13 154 L -49.29 156.62 L -51.9 159.44 L -54.99 162.43 L -58.58 165.54 L -62.69 168.73 L -74.98 163.64 L -75.64 158.48 L -75.97 153.74 L -76.04 149.44 L -75.89 145.6 L -75.57 142.22 L -75.14 139.31 L -74.63 136.88 L -74.11 134.91 L -73.63 133.4 L -73.22 132.35 L -72.95 131.73 L -72.84 131.53 A 8 8 0 0 0 -93.64 117.63 L -93.79 117.8 L -94.25 118.3 L -95.07 119.07 L -96.28 120.1 L -97.9 121.33 L -99.96 122.73 L -102.48 124.24 L -105.48 125.83 L -108.97 127.44 L -112.96 129.02 L -117.47 130.52 L -122.49 131.9 L -131.9 122.49 L -130.52 117.47 L -129.02 112.96 L -127.44 108.97 L -125.83 105.48 L -124.24 102.48 L -122.73 99.96 L -121.33 97.9 L -120.1 96.28 L -119.07 95.07 L -118.3 94.25 L -117.8 93.79 L -117.63 93.64 A 8 8 0 0 0 -131.53 72.84 L -131.73 72.95 L -132.35 73.22 L -133.4 73.63 L -134.91 74.11 L -136.88 74.63 L -139.31 75.14 L -142.22 75.57 L -145.6 75.89 L -149.44 76.04 L -153.74 75.97 L -158.48 75.64 L -163.64 74.98 L -168.73 62.69 L -165.54 58.58 L -162.43 54.99 L -159.44 51.9 L -156.62 49.29 L -154 47.13 L -151.64 45.38 L -149.56 44.01 L -147.8 42.99 L -146.39 42.27 L -145.36 41.81 L -144.73 41.57 L -144.51 41.5 A 8 8 0 0 0 -149.39 16.97 L -149.62 16.98 L -150.29 17 L -151.42 16.97 L -153 16.85 L -155.02 16.57 L -157.46 16.1 L -160.32 15.39 L -163.56 14.39 L -167.17 13.06 L -171.11 11.35 L -175.36 9.23 L -179.88 6.66 L -179.88 -6.66 L -175.36 -9.23 L -171.11 -11.35 L -167.17 -13.06 L -163.56 -14.39 L -160.32 -15.39 L -157.46 -16.1 L -155.02 -16.57 L -153 -16.85 L -151.42 -16.97 L -150.29 -17 L -149.62 -16.98 L -149.39 -16.97 A 8 8 0 0 0 -144.51 -41.5 L -144.73 -41.57 L -145.36 -41.81 L -146.39 -42.27 L -147.8 -42.99 L -149.56 -44.01 L -151.64 -45.38 L -154 -47.13 L -156.62 -49.29 L -159.44 -51.9 L -162.43 -54.99 L -165.54 -58.58 L -168.73 -62.69 L -163.64 -74.98 L -158.48 -75.64 L -153.74 -75.97 L -149.44 -76.04 L -145.6 -75.89 L -142.22 -75.57 L -139.31 -75.14 L -136.88 -74.63 L -134.91 -74.11 L -133.4 -73.63 L -132.35 -73.22 L -131.73 -72.95 L -131.53 -72.84 A 8 8 0 0 0 -117.63 -93.64 L -117.8 -93.79 L -118.3 -94.25 L -119.07 -95.07 L -120.1 -96.28 L -121.33 -97.9 L -122.73 -99.96 L -124.24 -102.48 L -125.83 -105.48 L -127.44 -108.97 L -129.02 -112.96 L -130.52 -117.47 L -131.9 -122.49 L -122.49 -131.9 L -117.47 -130.52 L -112.96 -129.02 L -108.97 -127.44 L -105.48 -125.83 L -102.48 -124.24 L -99.96 -122.73 L -97.9 -121.33 L -96.28 -120.1 L -95.07 -119.07 L -94.25 -118.3 L -93.79 -117.8 L -93.64 -117.63 A 8 8 0 0 0 -72.84 -131.53 L -72.95 -131.73 L -73.22 -132.35 L -73.63 -133.4 L -74.11 -134.91 L -74.63 -136.88 L -75.14 -139.31 L -75.57 -142.22 L -75.89 -145.6 L -76.04 -149.44 L -75.97 -153.74 L -75.64 -158.48 L -74.98 -163.64 L -62.69 -168.73 L -58.58 -165.54 L -54.99 -162.43 L -51.9 -159.44 L -49.29 -156.62 L -47.13 -154 L -45.38 -151.64 L -44.01 -149.56 L -42.99 -147.8 L -42.27 -146.39 L -41.81 -145.36 L -41.57 -144.73 L -41.5 -144.51 A 8 8 0 0 0 -16.97 -149.39 L -16.98 -149.62 L -17 -150.29 L -16.97 -151.42 L -16.85 -153 L -16.57 -155.02 L -16.1 -157.46 L -15.39 -160.32 L -14.39 -163.56 L -13.06 -167.17 L -11.35 -171.11 L -9.23 -175.36 L -6.66 -179.88 L 6.66 -179.88 L 9.23 -175.36 L 11.35 -171.11 L 13.06 -167.17 L 14.39 -163.56 L 15.39 -160.32 L 16.1 -157.46 L 16.57 -155.02 L 16.85 -153 L 16.97 -151.42 L 17 -150.29 L 16.98 -149.62 L 16.97 -149.39 A 8 8 0 0 0 41.5 -144.51 L 41.57 -144.73 L 41.81 -145.36 L 42.27 -146.39 L 42.99 -147.8 L 44.01 -149.56 L 45.38 -151.64 L 47.13 -154 L 49.29 -156.62 L 51.9 -159.44 L 54.99 -162.43 L 58.58 -165.54 L 62.69 -168.73 L 74.98 -163.64 L 75.64 -158.48 L 75.97 -153.74 L 76.04 -149.44 L 75.89 -145.6 L 75.57 -142.22 L 75.14 -139.31 L 74.63 -136.88 L 74.11 -134.91 L 73.63 -133.4 L 73.22 -132.35 L 72.95 -131.73 L 72.84 -131.53 A 8 8 0 0 0 93.64 -117.63 L 93.79 -117.8 L 94.25 -118.3 L 95.07 -119.07 L 96.28 -120.1 L 97.9 -121.33 L 99.96 -122.73 L 102.48 -124.24 L 105.48 -125.83 L 108.97 -127.44 L 112.96 -129.02 L 117.47 -130.52 L 122.49 -131.9 L 131.9 -122.49 L 130.52 -117.47 L 129.02 -112.96 L 127.44 -108.97 L 125.83 -105.48 L 124.24 -102.48 L 122.73 -99.96 L 121.33 -97.9 L 120.1 -96.28 L 119.07 -95.07 L 118.3 -94.25 L 117.8 -93.79 L 117.63 -93.64 A 8 8 0 0 0 131.53 -72.84 L 131.73 -72.95 L 132.35 -73.22 L 133.4 -73.63 L 134.91 -74.11 L 136.88 -74.63 L 139.31 -75.14 L 142.22 -75.57 L 145.6 -75.89 L 149.44 -76.04 L 153.74 -75.97 L 158.48 -75.64 L 163.64 -74.98 L 168.73 -62.69 L 165.54 -58.58 L 162.43 -54.99 L 159.44 -51.9 L 156.62 -49.29 L 154 -47.13 L 151.64 -45.38 L 149.56 -44.01 L 147.8 -42.99 L 146.39 -42.27 L 145.36 -41.81 L 144.73 -41.57 L 144.51 -41.5 A 8 8 0 0 0 149.39 -16.97 L 149.62 -16.98 L 150.29 -17 L 151.42 -16.97 L 153 -16.85 L 155.02 -16.57 L 157.46 -16.1 L 160.32 -15.39 L 163.56 -14.39 L 167.17 -13.06 L 171.11 -11.35 L 175.36 -9.23 L 179.88 -6.66 L 179.88 6.66 L 175.36 9.23 L 171.11 11.35 L 167.17 13.06 L 163.56 14.39 L 160.32 15.39 L 157.46 16.1 L 155.02 16.57 L 153 16.85 L 151.42 16.97 L 150.29 17 L 149.62 16.98 L 149.39 16.97
			  M -110 0
				a 110 110 0 1 0 220 0
				a 110 110 0 1 0 -220 0
			" stroke="none" stroke-width="4"></path><circle cx="0" cy="0" r="60" stroke="none"></circle><path d="
						M 0 -25
						L 120 -20
						L 120 20
						L 0 25
						Z
					"></path></g></svg>