<?xml version="1.0" encoding="UTF-8" standalone="no"?>
<!DOCTYPE svg PUBLIC "-//W3C//DTD SVG 1.1//EN" "http://www.w3.org/Graphics/SVG/1.1/DTD/svg11.dtd">
<svg width="100%" height="100%" viewBox="0 0 1500 1500" version="1.1" xmlns="http://www.w3.org/2000/svg" xmlns:xlink="http://www.w3.org/1999/xlink" xml:space="preserve" xmlns:serif="http://www.serif.com/" style="fill-rule:evenodd;clip-rule:evenodd;stroke-linejoin:round;stroke-miterlimit:2;">
    <g transform="matrix(1,0,0,1,-330,-330)">
        <g transform="matrix(-1.38889,-1.09034e-16,0,-1.38889,1830,1830)">
            <path d="M624.298,6.62C568.446,-2.207 511.554,-2.207 455.702,6.62C466.538,75.182 443.307,129.054 386.01,168.235C317.789,181.045 263.27,159.379 222.451,103.236C176.716,136.488 136.488,176.716 103.236,222.451C159.379,263.27 181.045,317.789 168.235,386.01C129.054,443.307 75.182,466.538 6.62,455.702C-2.207,511.554 -2.207,568.446 6.62,624.298C75.182,613.462 129.054,636.693 168.235,693.99C181.045,762.211 159.379,816.73 103.236,857.549C136.488,903.284 176.716,943.512 222.451,976.764C263.27,920.621 317.789,898.955 386.01,911.765C443.307,950.946 466.538,1004.82 455.702,1073.38C511.554,1082.21 568.446,1082.21 624.298,1073.38C613.462,1004.82 636.693,950.946 693.99,911.765C762.211,898.955 816.73,920.621 857.549,976.764C903.284,943.512 943.512,903.284 976.764,857.549C920.621,816.73 898.955,762.211 911.765,693.99C950.946,636.693 1004.82,613.462 1073.38,624.298C1082.21,568.446 1082.21,511.554 1073.38,455.702C1004.82,466.538 950.946,443.307 911.765,386.01C898.955,317.789 920.621,263.27 976.764,222.451C943.512,176.716 903.284,136.488 857.549,103.236C816.73,159.379 762.211,181.045 693.99,168.235C636.693,129.054 613.462,75.182 624.298,6.62ZM540,190.137C733.095,190.137 889.863,346.905 889.863,540C889.863,733.095 733.095,889.863 540,889.863C346.905,889.863 190.137,733.095 190.137,540C190.137,346.905 346.905,190.137 540,190.137Z" style="fill:rgb(219,179,104);"/>
        </g>
        <g transform="matrix(-0.878622,-9.75466e-17,9.75466e-17,-0.878622,1554.46,1553.53)">
            <circle cx="540" cy="540" r="284.536" style="fill:white;"/>
        </g>
        <g transform="matrix(-0.829465,-1.25162e-16,1.6487e-16,-1.44591,1152.91,1859.87)">
            <path d="M992.099,458.108C992.099,446.049 975.033,436.259 954.013,436.259L259.15,436.259C164.635,436.259 87.901,480.279 87.901,534.498L87.901,540.592C87.901,597.521 168.471,643.741 267.71,643.741L954.013,643.741C975.033,643.741 992.099,633.951 992.099,621.892L992.099,458.108Z" style="fill:white;"/>
        </g>
    </g>
</svg>
