<svg viewBox="0 0 1500 1500" xmlns="http://www.w3.org/2000/svg" fill-rule="evenodd" clip-rule="evenodd" stroke-linejoin="round" stroke-miterlimit="2"><circle cx="540" cy="540" r="284.536" transform="rotate(-180 612.23 611.764) scale(.87862)"/><path d="M238.232 499.073c4.295-77.651-27.322-141.017-94.849-190.113A750.007 750.007 0 01308.96 143.383c56.692 77.976 132.414 108.068 227.165 90.277 79.579-54.419 111.844-129.24 96.794-224.465a749.994 749.994 0 01234.161 0c-15.05 95.225 17.22 170.046 96.8 224.465 94.75 17.791 170.47-12.301 227.16-90.277a750.191 750.191 0 01165.58 165.577c-77.98 56.692-108.07 132.414-90.28 227.165 54.42 79.579 129.24 111.844 224.47 96.794a749.994 749.994 0 010 234.161c-95.23-15.05-170.05 17.22-224.47 96.8-17.79 94.75 12.3 170.47 90.28 227.16a750.376 750.376 0 01-165.58 165.58c-56.69-77.98-132.41-108.07-227.16-90.28-79.58 54.42-111.85 129.24-96.8 224.47a749.994 749.994 0 01-234.161 0c15.05-95.23-17.215-170.05-96.794-224.47-94.751-17.79-170.473 12.3-227.165 90.28a750.191 750.191 0 01-165.577-165.58c68.565-49.85 100.107-114.41 94.627-193.68h93.743c84.668 142.76 240.359 238.56 418.247 238.56 268.19 0 485.92-217.73 485.92-485.92 0-268.187-217.73-485.921-485.92-485.921-176.387 0-330.949 94.185-416.113 234.994h-95.655z"/><path d="M-.001 867.487c0 17.436 14.155 31.592 31.59 31.592h576.365c78.397 0 142.045-63.65 142.045-142.045v-8.811c0-82.315-66.83-149.145-149.145-149.145H31.59c-17.436 0-31.591 14.156-31.591 31.592v236.817z"/></svg>