<svg viewBox="0 0 1500 1500" xmlns="http://www.w3.org/2000/svg" fill-rule="evenodd" clip-rule="evenodd" stroke-linejoin="round" stroke-miterlimit="2"><circle cx="540" cy="540" r="284.536" fill="#fff" transform="matrix(.87862 0 0 -.87862 275.544 1223.53)"/><path d="M1500.001 867.487c0 17.436-14.155 31.592-31.59 31.592H892.045c-78.397 0-142.045-63.65-142.045-142.045v-8.811c0-82.315 66.83-149.145 149.145-149.145h569.264c17.436 0 31.591 14.156 31.591 31.592v236.817z" fill="#fff"/><path d="M1265.39 1057.04c10.35 52.64 40.76 97.31 91.23 134a750.376 750.376 0 01-165.58 165.58c-56.69-77.98-132.41-108.07-227.16-90.28-79.58 54.42-111.85 129.24-96.8 224.47a749.994 749.994 0 01-234.161 0c15.05-95.23-17.215-170.05-96.794-224.47-94.751-17.79-170.473 12.3-227.165 90.28a750.191 750.191 0 01-165.577-165.58c77.976-56.69 108.068-132.41 90.277-227.16-54.419-79.58-129.24-111.85-224.465-96.8a749.994 749.994 0 010-234.161c95.225 15.05 170.046-17.215 224.465-96.794 17.791-94.751-12.301-170.473-90.277-227.165A750.007 750.007 0 01308.96 143.383c56.692 77.976 132.414 108.068 227.165 90.277 79.579-54.419 111.844-129.24 96.794-224.465a749.994 749.994 0 01234.161 0c-15.05 95.225 17.22 170.046 96.8 224.465 94.75 17.791 170.47-12.301 227.16-90.277a750.191 750.191 0 01165.58 165.577c-49.88 36.262-80.16 80.309-90.86 132.148H1125c-89.18-108.097-224.1-177.029-375-177.029-268.187 0-485.921 217.734-485.921 485.921 0 268.19 217.734 485.92 485.921 485.92 151.77 0 287.39-69.73 376.53-178.88h138.86z" fill="#dbb368"/></svg>