<?xml version="1.0" encoding="UTF-8" standalone="no"?>
<!DOCTYPE svg PUBLIC "-//W3C//DTD SVG 1.1//EN" "http://www.w3.org/Graphics/SVG/1.1/DTD/svg11.dtd">
<svg width="100%" height="100%" viewBox="0 0 1500 1500" version="1.1" xmlns="http://www.w3.org/2000/svg" xmlns:xlink="http://www.w3.org/1999/xlink" xml:space="preserve" xmlns:serif="http://www.serif.com/" style="fill-rule:evenodd;clip-rule:evenodd;stroke-linejoin:round;stroke-miterlimit:2;">
    <g transform="matrix(1,0,0,1,-330,-330)">
        <g transform="matrix(-0.878622,-9.75466e-17,9.75466e-17,-0.878622,1554.46,1553.53)">
            <circle cx="540" cy="540" r="284.536"/>
        </g>
        <path d="M568.232,829.073C572.527,751.422 540.91,688.056 473.383,638.96C519.566,575.439 575.439,519.566 638.96,473.383C695.652,551.359 771.374,581.451 866.125,563.66C945.704,509.241 977.969,434.42 962.919,339.195C1040.49,326.935 1119.51,326.935 1197.08,339.195C1182.03,434.42 1214.3,509.241 1293.88,563.66C1388.63,581.451 1464.35,551.359 1521.04,473.383C1584.56,519.566 1640.43,575.439 1686.62,638.96C1608.64,695.652 1578.55,771.374 1596.34,866.125C1650.76,945.704 1725.58,977.969 1820.81,962.919C1833.07,1040.49 1833.07,1119.51 1820.81,1197.08C1725.58,1182.03 1650.76,1214.3 1596.34,1293.88C1578.55,1388.63 1608.64,1464.35 1686.62,1521.04C1640.43,1584.56 1584.56,1640.43 1521.04,1686.62C1464.35,1608.64 1388.63,1578.55 1293.88,1596.34C1214.3,1650.76 1182.03,1725.58 1197.08,1820.81C1119.51,1833.07 1040.49,1833.07 962.919,1820.81C977.969,1725.58 945.704,1650.76 866.125,1596.34C771.374,1578.55 695.652,1608.64 638.96,1686.62C575.439,1640.43 519.566,1584.56 473.383,1521.04C541.948,1471.19 573.49,1406.63 568.01,1327.36L661.753,1327.36C746.421,1470.12 902.112,1565.92 1080,1565.92C1348.19,1565.92 1565.92,1348.19 1565.92,1080C1565.92,811.813 1348.19,594.079 1080,594.079C903.613,594.079 749.051,688.264 663.887,829.073L568.232,829.073Z"/>
        <g transform="matrix(-0.829465,-1.25162e-16,1.6487e-16,-1.44591,1152.91,1859.87)">
            <path d="M992.099,458.108C992.099,446.049 975.033,436.259 954.013,436.259L259.15,436.259C164.635,436.259 87.901,480.279 87.901,534.498L87.901,540.592C87.901,597.521 168.471,643.741 267.71,643.741L954.013,643.741C975.033,643.741 992.099,633.951 992.099,621.892L992.099,458.108Z"/>
        </g>
    </g>
</svg>
